<svg width="22" height="30" viewBox="0 0 22 30" fill="none" xmlns="http://www.w3.org/2000/svg">
<path d="M20.6235 13.6348H19.247V8.17969C19.247 3.66211 15.5548 0 11 0C6.44522 0 2.75295 3.66211 2.75295 8.17969V13.6348H1.37648C0.6203 13.6348 0 14.2441 0 15V28.6348C0 29.3906 0.614393 30 1.37648 30H20.6235C21.3797 30 22 29.3906 22 28.6348V15C22 14.2441 21.3797 13.6348 20.6235 13.6348ZM16.5 13.6348H5.5V8.17969C5.5 5.16797 7.96348 2.72461 11 2.72461C14.0365 2.72461 16.5 5.16797 16.5 8.17969V13.6348Z" fill="#CCCCCC"/>
</svg>
